<svg width="16" height="16" viewBox="0 0 16 16" fill="none" xmlns="http://www.w3.org/2000/svg">
<circle cx="7.99996" cy="8.00001" r="6.58333" stroke="#F1F1EF" stroke-width="1.5"/>
<path d="M10.4836 6.26165C10.6898 6.0555 10.6898 5.72071 10.4836 5.51455C10.2774 5.3084 9.94265 5.3084 9.7365 5.51455L7.99986 7.25284L6.26158 5.5162C6.05542 5.31005 5.72063 5.31005 5.51448 5.5162C5.30832 5.72236 5.30832 6.05715 5.51448 6.2633L7.25276 7.99994L5.51613 9.73822C5.30997 9.94438 5.30997 10.2792 5.51613 10.4853C5.72228 10.6915 6.05707 10.6915 6.26323 10.4853L7.99986 8.74704L9.73815 10.4837C9.9443 10.6898 10.2791 10.6898 10.4852 10.4837C10.6914 10.2775 10.6914 9.94273 10.4852 9.73658L8.74696 7.99994L10.4836 6.26165Z" fill="#F1F1EF" stroke="#F1F1EF" stroke-width="0.5"/>
</svg>
